<svg xmlns="http://www.w3.org/2000/svg" viewBox="0 0 320 320"><defs><style>.a{fill:#23272a;}.b{fill:#ff7550;}.c{fill:#cfff63;}.d{fill:#b6a6f6;}</style></defs><circle class="a" cx="160" cy="160" r="156.84"/><rect class="b" x="223.36" y="128.64" width="67.57" height="62.57" rx="6.05"/><circle class="c" cx="62.75" cy="160" r="33.68"/><path class="a" d="M42.73,180l16.36-42.35h7.53L82.78,180H75.4l-4.18-11.61h-17L49.89,180Zm13.75-17.77H69.13L63,145.33H62.8Z"/><path class="a" d="M237.22,180l16.37-42.35h7.53L277.27,180H269.9l-4.18-11.61h-17L244.39,180ZM251,162.27h12.66l-6.12-16.94h-.21Z"/><rect class="d" x="104.31" y="126.32" width="110.3" height="67.23" rx="33.61"/><path class="a" d="M143.71,179.7V137.36h14a22.68,22.68,0,0,1,11.06,2.56,18,18,0,0,1,7.27,7.32,25.79,25.79,0,0,1,0,22.53,18.13,18.13,0,0,1-7.3,7.35,22.56,22.56,0,0,1-11,2.58Zm7.06-6.17h6.9a14,14,0,0,0,7.56-1.9,12.31,12.31,0,0,0,4.65-5.26,18.07,18.07,0,0,0,1.6-7.84q0-6.75-3.56-10.88t-10.25-4.13h-6.9Z"/></svg>