<svg xmlns="http://www.w3.org/2000/svg" viewBox="0 0 1795.62 387.79"><defs><style>.a{fill:#23272a;}.b{fill:#ff7550;}.c{fill:#cfff63;}.d{fill:#b6a6f6;}</style></defs><path class="a" d="M1168.34,109.76l17.51-45.32h8.06l17.29,45.32h-7.89l-4.48-12.42h-18.18L1176,109.76Zm14.71-19h13.54l-6.54-18.12h-.23Z"/><path class="a" d="M1218.64,109.76V64.44h18.52q6.87,0,10.88,3.8t4,10.35q0,6.5-4,10.33t-10.85,3.83h-11v17Zm7.55-23.67h10.52a7.87,7.87,0,0,0,5.68-2,8.21,8.21,0,0,0,0-11,7.87,7.87,0,0,0-5.68-2h-10.52Z"/><path class="a" d="M1261.33,109.76V64.44h18.52q6.87,0,10.88,3.8t4,10.35q0,6.5-4,10.33t-10.85,3.83h-11v17Zm7.55-23.67h10.52a7.87,7.87,0,0,0,5.68-2,8.21,8.21,0,0,0,0-11,7.87,7.87,0,0,0-5.68-2h-10.52Z"/><path class="a" d="M1304,109.76V64.44h7.55V103h21.6v6.72Z"/><path class="a" d="M1342,109.76V64.44h7.55v45.32Z"/><path class="a" d="M1391.91,109.76h-29.43V64.44h29.43v6.71H1370V83h20.47v6.6H1370V103h21.87Z"/><path class="a" d="M1402.38,109.76V64.44h14.93a24.28,24.28,0,0,1,11.84,2.74,19.15,19.15,0,0,1,7.77,7.83,24.93,24.93,0,0,1,2.77,12.09,24.8,24.8,0,0,1-2.77,12,19.3,19.3,0,0,1-7.8,7.86,24.19,24.19,0,0,1-11.81,2.77Zm7.55-6.6h7.38a14.93,14.93,0,0,0,8.09-2,13.13,13.13,0,0,0,5-5.62,19.27,19.27,0,0,0,1.7-8.39q0-7.21-3.8-11.64t-11-4.42h-7.38Z"/><path class="a" d="M1467.44,109.76V64.44h14.94a24.28,24.28,0,0,1,11.84,2.74A19.21,19.21,0,0,1,1502,75a24.93,24.93,0,0,1,2.77,12.09,24.8,24.8,0,0,1-2.77,12,19.3,19.3,0,0,1-7.8,7.86,24.19,24.19,0,0,1-11.81,2.77Zm7.56-6.6h7.38a14.93,14.93,0,0,0,8.09-2,13.13,13.13,0,0,0,5-5.62,19.42,19.42,0,0,0,1.7-8.39q0-7.21-3.8-11.64t-11-4.42H1475Z"/><path class="a" d="M1507.78,109.76l17.52-45.32h8l17.29,45.32h-7.89l-4.47-12.42h-18.19l-4.64,12.42Zm14.72-19H1536l-6.55-18.12h-.22Z"/><path class="a" d="M1568.66,109.76h-7.5V71.15H1547V64.44h35.92v6.71h-14.21Z"/><path class="a" d="M1579.18,109.76l17.51-45.32h8.06L1622,109.76h-7.89l-4.48-12.42h-18.18l-4.65,12.42Zm14.71-19h13.54l-6.54-18.12h-.23Z"/><path class="a" d="M1168.34,177.48l17.51-45.32h8.06l17.29,45.32h-7.89l-4.48-12.42h-18.18L1176,177.48Zm14.71-19h13.54l-6.54-18.12h-.23Z"/><path class="a" d="M1256.63,177.48h-8.23l-22.49-33.63h-.22v33.63h-7V132.16h7.94l22.77,34h.23v-34h7.05Z"/><path class="a" d="M1264.07,177.48l17.51-45.32h8.06l17.29,45.32H1299l-4.48-12.42h-18.18l-4.65,12.42Zm14.71-19h13.54l-6.54-18.12h-.23Z"/><path class="a" d="M1314.37,177.48V132.16h7.55v38.6h21.6v6.72Z"/><path class="a" d="M1354.31,177.48v-17l-15.49-28.36h8.56l10.8,20.53h.22l10.8-20.53h8.17l-15.5,28.25v17.07Z"/><path class="a" d="M1402.43,177.48h-7.5V138.87h-14.21v-6.71h35.92v6.71h-14.21Z"/><path class="a" d="M1425.15,177.48V132.16h7.55v45.32Z"/><path class="a" d="M1464.14,178.26a20.25,20.25,0,0,1-10.93-2.94,19.79,19.79,0,0,1-7.36-8.22,29.8,29.8,0,0,1,0-24.48,19.8,19.8,0,0,1,7.36-8.2,21.84,21.84,0,0,1,19.77-1.06,17,17,0,0,1,6.44,5.29,17.55,17.55,0,0,1,3.19,8h-7.89a9.2,9.2,0,0,0-3.44-6.09,11.1,11.1,0,0,0-7.14-2.3,12.19,12.19,0,0,0-7.05,2.07,13.26,13.26,0,0,0-4.64,5.76,24.25,24.25,0,0,0,0,17.43,13.24,13.24,0,0,0,4.64,5.79,12.19,12.19,0,0,0,7.05,2.07,11,11,0,0,0,7.14-2.32,9.27,9.27,0,0,0,3.44-6.07h7.89a17.69,17.69,0,0,1-3.19,8,16.94,16.94,0,0,1-6.44,5.32A20.33,20.33,0,0,1,1464.14,178.26Z"/><path class="a" d="M1506.89,178.15a22.71,22.71,0,0,1-9.4-1.82,15.1,15.1,0,0,1-6.35-5.15,14.83,14.83,0,0,1-2.6-7.75h7.77a8.86,8.86,0,0,0,3.42,6.16,12.11,12.11,0,0,0,7.44,2.12,10.65,10.65,0,0,0,6.57-1.76,5.84,5.84,0,0,0,2.32-4.95,5.69,5.69,0,0,0-1.59-4.11,10,10,0,0,0-5.06-2.44l-7.33-1.62q-5.88-1.34-8.87-4.42a10.74,10.74,0,0,1-3-7.83,12.13,12.13,0,0,1,2-6.86,13.12,13.12,0,0,1,5.52-4.58,19.64,19.64,0,0,1,8.36-1.65,20.17,20.17,0,0,1,8.59,1.7,14.54,14.54,0,0,1,5.87,4.84,14.79,14.79,0,0,1,2.6,7.33h-7.83a8.87,8.87,0,0,0-3.19-5.65,10.2,10.2,0,0,0-6.43-2,9.54,9.54,0,0,0-5.88,1.65,5.35,5.35,0,0,0-2.18,4.51,5.17,5.17,0,0,0,1.54,3.75A9.56,9.56,0,0,0,1504,150l7.72,1.73q5.88,1.35,8.81,4.48a11.61,11.61,0,0,1,2.94,8.28,12.45,12.45,0,0,1-4.36,10Q1514.73,178.15,1506.89,178.15Z"/><path class="a" d="M1181.32,245.2h-7.55V199.88h28.87v6.71h-21.32V219h19.86v6.71h-19.86Z"/><path class="a" d="M1229.44,245.87a19.87,19.87,0,0,1-18.24-11,29.17,29.17,0,0,1,0-24.73,20,20,0,0,1,7.47-8.08,20.45,20.45,0,0,1,10.77-2.86,20.72,20.72,0,0,1,10.82,2.83,19.7,19.7,0,0,1,7.44,8.06,29.55,29.55,0,0,1,0,24.81,20.06,20.06,0,0,1-7.45,8.11A20.3,20.3,0,0,1,1229.44,245.87Zm0-6.77a12.1,12.1,0,0,0,7.07-2.07,13.47,13.47,0,0,0,4.65-5.79,23.92,23.92,0,0,0,0-17.46,13.26,13.26,0,0,0-4.65-5.76,13.15,13.15,0,0,0-14.1,0,13.52,13.52,0,0,0-4.67,5.76,23.52,23.52,0,0,0,0,17.46,13.73,13.73,0,0,0,4.67,5.79A12.06,12.06,0,0,0,1229.44,239.1Z"/><path class="a" d="M1260.88,245.2V199.88H1281a17.66,17.66,0,0,1,7.39,1.45,11.41,11.41,0,0,1,5,4.22,12.11,12.11,0,0,1,1.79,6.69,11.75,11.75,0,0,1-1.4,5.74,9.23,9.23,0,0,1-4.53,3.94v.22a6,6,0,0,1,4.42,1.54,6.09,6.09,0,0,1,1.51,4.45V245.2h-7.5v-18h-19.19v18Zm7.55-24.57h11.92a7.54,7.54,0,0,0,5.31-1.84,7.75,7.75,0,0,0,0-10.44,7.62,7.62,0,0,0-5.31-1.82h-11.92Z"/><path class="a" d="M1342.12,245.2h-7.5V206.59h-14.21v-6.71h35.92v6.71h-14.21Z"/><path class="a" d="M1364.78,245.2V199.88h7.55v18.46h21.49V199.88h7.55V245.2h-7.55V225.05h-21.49V245.2Z"/><path class="a" d="M1443.61,245.2h-29.43V199.88h29.43v6.71h-21.88V218.4h20.48V225h-20.48v13.48h21.88Z"/><path class="a" d="M1471.7,245.2V199.88h18.52q6.87,0,10.88,3.8t4,10.35q0,6.5-4,10.32t-10.85,3.84h-11v17Zm7.55-23.67h10.52a7.85,7.85,0,0,0,5.68-2,8.2,8.2,0,0,0,0-11,7.89,7.89,0,0,0-5.68-2h-10.52Z"/><path class="a" d="M1531.67,245.87a21.16,21.16,0,0,1-9.37-2,14.36,14.36,0,0,1-6.21-5.79,18.66,18.66,0,0,1-2.21-9.43V199.88h7.67v28c0,3.39.87,6,2.63,7.94s4.34,2.86,7.77,2.86,6.06-1,7.75-3a11.54,11.54,0,0,0,2.55-7.72V199.88h7.55V228.8a18.22,18.22,0,0,1-2.18,9.15,14.41,14.41,0,0,1-6.24,5.87A21.25,21.25,0,0,1,1531.67,245.87Z"/><path class="a" d="M1562.11,245.2V199.88h20a14.63,14.63,0,0,1,6.58,1.42,11,11,0,0,1,6.24,10.27,9.14,9.14,0,0,1-2,6,10.06,10.06,0,0,1-4.84,3.33v.22a10.82,10.82,0,0,1,7.55,5.51,11.55,11.55,0,0,1,1.29,5.68,12.65,12.65,0,0,1-1.82,6.83,12.19,12.19,0,0,1-5,4.5,15.62,15.62,0,0,1-7.13,1.6Zm7.55-26.64h11.47a6.43,6.43,0,0,0,4.51-1.56,6.6,6.6,0,0,0,0-8.84,6.39,6.39,0,0,0-4.51-1.57h-11.47Zm0,19.92h12a8.27,8.27,0,0,0,5.54-1.79,6.27,6.27,0,0,0,2.13-5.09,6.12,6.12,0,0,0-2.1-5.06,8.46,8.46,0,0,0-5.51-1.71h-12.09Z"/><path class="a" d="M1607,245.2V199.88h7.55v38.6h21.6v6.72Z"/><path class="a" d="M1645,245.2V199.88h7.55V245.2Z"/><path class="a" d="M1684,246a20.25,20.25,0,0,1-10.93-2.94,19.79,19.79,0,0,1-7.36-8.22,29.8,29.8,0,0,1,0-24.48,19.8,19.8,0,0,1,7.36-8.2,21.76,21.76,0,0,1,19.77-1.06,17,17,0,0,1,6.44,5.29,17.55,17.55,0,0,1,3.19,8h-7.89a9.22,9.22,0,0,0-3.44-6.1A11.15,11.15,0,0,0,1684,206a12.19,12.19,0,0,0-7,2.07,13.26,13.26,0,0,0-4.64,5.76,24.25,24.25,0,0,0,0,17.43,13.24,13.24,0,0,0,4.64,5.79,12.19,12.19,0,0,0,7,2.07,11,11,0,0,0,7.14-2.32,9.27,9.27,0,0,0,3.44-6.07h7.89a17.69,17.69,0,0,1-3.19,8,16.83,16.83,0,0,1-6.44,5.31A20.19,20.19,0,0,1,1684,246Z"/><path class="a" d="M1168.34,312.91l17.51-45.32h8.06l17.29,45.32h-7.89l-4.48-12.42h-18.18L1176,312.91Zm14.71-19h13.54l-6.54-18.13h-.23Z"/><path class="a" d="M1218.64,312.91V267.59h14.94a24.24,24.24,0,0,1,11.83,2.75,19.18,19.18,0,0,1,7.78,7.83,27.62,27.62,0,0,1,0,24.11,19.26,19.26,0,0,1-7.81,7.86,24.07,24.07,0,0,1-11.8,2.77Zm7.55-6.6h7.39a15,15,0,0,0,8.08-2,13.19,13.19,0,0,0,5-5.62,19.32,19.32,0,0,0,1.71-8.4q0-7.22-3.81-11.63t-11-4.42h-7.39Z"/><path class="a" d="M1266.08,312.91V267.59h10.41l12.92,34.53h.23l13-34.53H1313v45.32h-7.55V277.72h-.23l-12.76,35.19h-6.32l-12.75-35.24h-.23v35.24Z"/><path class="a" d="M1325.89,312.91V267.59h7.56v45.32Z"/><path class="a" d="M1384.36,312.91h-8.22l-22.5-33.62h-.22v33.62h-7.05V267.59h7.94l22.78,34h.22v-34h7Z"/><path class="a" d="M1397.28,312.91V267.59h7.56v45.32Z"/><path class="a" d="M1433.2,313.59a22.71,22.71,0,0,1-9.4-1.82,15.17,15.17,0,0,1-6.35-5.15,14.92,14.92,0,0,1-2.6-7.75h7.78A8.81,8.81,0,0,0,1426,305a12.18,12.18,0,0,0,7.44,2.12,10.73,10.73,0,0,0,6.58-1.76,5.89,5.89,0,0,0,2.32-4.95,5.66,5.66,0,0,0-1.6-4.11,9.94,9.94,0,0,0-5.06-2.44l-7.33-1.62q-5.88-1.35-8.87-4.42a10.78,10.78,0,0,1-3-7.83,12.06,12.06,0,0,1,2-6.86,13,13,0,0,1,5.51-4.59,19.7,19.7,0,0,1,8.36-1.65,20.1,20.1,0,0,1,8.59,1.71,14.64,14.64,0,0,1,5.88,4.84,14.88,14.88,0,0,1,2.6,7.33h-7.83a8.88,8.88,0,0,0-3.19-5.65,10.17,10.17,0,0,0-6.44-2,9.49,9.49,0,0,0-5.87,1.65,5.32,5.32,0,0,0-2.18,4.5,5.16,5.16,0,0,0,1.53,3.75,9.57,9.57,0,0,0,4.84,2.3l7.72,1.73q5.88,1.35,8.82,4.48a11.61,11.61,0,0,1,2.93,8.28,12.47,12.47,0,0,1-4.36,10Q1441,313.59,1433.2,313.59Z"/><path class="a" d="M1475.5,312.91H1468v-38.6h-14.21v-6.72h35.92v6.72H1475.5Z"/><path class="a" d="M1498.16,312.91V267.59h20.09a17.61,17.61,0,0,1,7.38,1.46,11.41,11.41,0,0,1,5,4.22,12,12,0,0,1,1.79,6.69,11.58,11.58,0,0,1-1.4,5.73,9.2,9.2,0,0,1-4.53,3.95v.22a5.94,5.94,0,0,1,4.42,1.54,6.09,6.09,0,0,1,1.51,4.45v17.06h-7.49V295h-19.2v18Zm7.55-24.56h11.92a7.58,7.58,0,0,0,5.32-1.84,7.78,7.78,0,0,0,0-10.44,7.67,7.67,0,0,0-5.32-1.82h-11.92Z"/><path class="a" d="M1539.06,312.91l17.51-45.32h8.06l17.29,45.32H1574l-4.48-12.42h-18.18l-4.64,12.42Zm14.72-19h13.54l-6.55-18.13h-.22Z"/><path class="a" d="M1599.93,312.91h-7.49v-38.6h-14.21v-6.72h35.92v6.72h-14.22Z"/><path class="a" d="M1622.65,312.91V267.59h7.55v45.32Z"/><path class="a" d="M1661.7,313.59a19.91,19.91,0,0,1-18.24-11,29.27,29.27,0,0,1,0-24.73,20.08,20.08,0,0,1,7.47-8.08,20.35,20.35,0,0,1,10.77-2.86,20.73,20.73,0,0,1,10.83,2.83,19.7,19.7,0,0,1,7.44,8.06,29.6,29.6,0,0,1,0,24.81,20.11,20.11,0,0,1-7.44,8.11A20.4,20.4,0,0,1,1661.7,313.59Zm0-6.77a12.11,12.11,0,0,0,7.08-2.07,13.42,13.42,0,0,0,4.64-5.8,23.76,23.76,0,0,0,0-17.45,13.24,13.24,0,0,0-4.64-5.76,13.15,13.15,0,0,0-14.1,0,13.52,13.52,0,0,0-4.67,5.76,23.5,23.5,0,0,0,0,17.45,13.7,13.7,0,0,0,4.67,5.8A12.05,12.05,0,0,0,1661.7,306.82Z"/><path class="a" d="M1731.14,312.91h-8.23l-22.49-33.62h-.22v33.62h-7V267.59h7.94l22.77,34h.23v-34h7.05Z"/><path class="b" d="M1083.71,313.15h-221a24.11,24.11,0,0,1-24.1-24.1V87.85a24.11,24.11,0,0,1,24.1-24.1h221a24.11,24.11,0,0,1,24.1,24.1V289A24.13,24.13,0,0,1,1083.71,313.15Z"/><path class="c" d="M198.61,323a134.2,134.2,0,1,0-134.2-134.2A134.2,134.2,0,0,0,198.61,323Z"/><path class="a" d="M118.81,273.65,184,105h30l64.4,168.7H249l-16.6-46.3h-67.7l-17.3,46.3Zm54.8-70.9H224l-24.4-67.5h-.8Z"/><path class="a" d="M893.81,273.65,959,105h30l64.4,168.7H1024l-16.7-46.2h-67.7l-17.3,46.2Zm54.8-70.9H999l-24.4-67.5h-.8Z"/><path class="d" d="M669.81,322.45H498.11a134,134,0,0,1,0-267.9h171.6a134,134,0,0,1,.1,267.9Z"/><path class="a" d="M521.21,273.55V104.85h55.6q25.35,0,44.1,10.2a71.55,71.55,0,0,1,29,29.2c6.9,12.6,10.3,27.6,10.3,45,0,17.2-3.4,32.2-10.3,44.8a72.64,72.64,0,0,1-29.1,29.3c-12.5,6.9-27.2,10.3-44,10.3h-55.6Zm28.1-24.6h27.5c11.9,0,22-2.5,30.1-7.6a48.76,48.76,0,0,0,18.5-20.9c4.2-8.9,6.4-19.3,6.4-31.2,0-17.9-4.7-32.4-14.2-43.3s-23.1-16.5-40.8-16.5h-27.5Z"/></svg>